# cylinder
v 0.5000 0 0.0000
v 0.4045 0 0.2939
v 0.1545 0 0.4755
v -0.1545 0 0.4755
v -0.4045 0 0.2939
v -0.5000 0 0.0000
v -0.4045 0 -0.2939
v -0.1545 0 -0.4755
v 0.1545 0 -0.4755
v 0.4045 0 -0.2939
v 0.5000 1 0.0000
v 0.4045 1 0.2939
v 0.1545 1 0.4755
v -0.1545 1 0.4755
v -0.4045 1 0.2939
v -0.5000 1 0.0000
v -0.4045 1 -0.2939
v -0.1545 1 -0.4755
v 0.1545 1 -0.4755
v 0.4045 1 -0.2939
v 0 0 0
v 0 1 0
f 1 2 12 11
f 2 3 13 12
f 3 4 14 13
f 4 5 15 14
f 5 6 16 15
f 6 7 17 16
f 7 8 18 17
f 8 9 19 18
f 9 10 20 19
f 10 1 11 20
f 21 2 1
f 21 3 2
f 21 4 3
f 21 5 4
f 21 6 5
f 21 7 6
f 21 8 7
f 21 9 8
f 21 10 9
f 21 1 10
f 22 11 12
f 22 12 13
f 22 13 14
f 22 14 15
f 22 15 16
f 22 16 17
f 22 17 18
f 22 18 19
f 22 19 20
f 22 20 11
