# uv sphere
v 0 1 0
v 0.7071 0.7071 0.0000
v 0.5000 0.7071 0.5000
v 0.0000 0.7071 0.7071
v -0.5000 0.7071 0.5000
v -0.7071 0.7071 0.0000
v -0.5000 0.7071 -0.5000
v -0.0000 0.7071 -0.7071
v 0.5000 0.7071 -0.5000
v 1.0000 0.0000 0.0000
v 0.7071 0.0000 0.7071
v 0.0000 0.0000 1.0000
v -0.7071 0.0000 0.7071
v -1.0000 0.0000 0.0000
v -0.7071 0.0000 -0.7071
v -0.0000 0.0000 -1.0000
v 0.7071 0.0000 -0.7071
v 0.7071 -0.7071 0.0000
v 0.5000 -0.7071 0.5000
v 0.0000 -0.7071 0.7071
v -0.5000 -0.7071 0.5000
v -0.7071 -0.7071 0.0000
v -0.5000 -0.7071 -0.5000
v -0.0000 -0.7071 -0.7071
v 0.5000 -0.7071 -0.5000
v 0 -1 0
f 1 3 2
f 1 4 3
f 1 5 4
f 1 6 5
f 1 7 6
f 1 8 7
f 1 9 8
f 1 2 9
f 2 3 11 10
f 3 4 12 11
f 4 5 13 12
f 5 6 14 13
f 6 7 15 14
f 7 8 16 15
f 8 9 17 16
f 9 2 10 17
f 10 11 19 18
f 11 12 20 19
f 12 13 21 20
f 13 14 22 21
f 14 15 23 22
f 15 16 24 23
f 16 17 25 24
f 17 10 18 25
f 27 19 20
f 27 20 21
f 27 21 22
f 27 22 23
f 27 23 24
f 27 24 25
f 27 25 26
f 27 26 19
